<svg width="10" height="15" viewBox="0 0 10 15" fill="none" xmlns="http://www.w3.org/2000/svg">
<path d="M0 7.49577C0 7.64257 0.0294695 7.77809 0.0884086 7.90232C0.153897 8.02654 0.252128 8.14512 0.383104 8.25805L8.03536 14.712C8.25802 14.904 8.52652 15 8.84086 15C9.05697 15 9.25016 14.9548 9.42043 14.8645C9.59725 14.7798 9.73805 14.6612 9.84283 14.5088C9.94761 14.3619 10 14.1982 10 14.0175C10 13.7465 9.87885 13.5065 9.63654 13.2976L2.74067 7.49577L9.63654 1.69396C9.87885 1.48504 10 1.24788 10 0.982496C10 0.79616 9.94761 0.629588 9.84283 0.482778C9.73805 0.335968 9.59725 0.220215 9.42043 0.135517C9.25016 0.0451722 9.05697 0 8.84086 0C8.52652 0 8.25802 0.0931677 8.03536 0.279503L0.383104 6.73348C0.252128 6.84641 0.153897 6.96499 0.0884086 7.08922C0.0294695 7.21344 0 7.34896 0 7.49577Z" fill="white"/>
</svg>
