<svg width="15" height="15" viewBox="0 0 15 15" fill="none" xmlns="http://www.w3.org/2000/svg">
<path fill-rule="evenodd" clip-rule="evenodd" d="M4.30022 0.045C5.08045 0.00818181 5.32922 0 7.3167 0C9.30418 0 9.55295 0.00886363 10.3325 0.045C11.1121 0.0811364 11.6442 0.208636 12.1098 0.393409C12.5974 0.582273 13.0397 0.8775 13.4055 1.25932C13.778 1.63364 14.0654 2.08636 14.2489 2.58682C14.4299 3.06409 14.5536 3.60955 14.5895 4.40727C14.6254 5.20841 14.6334 5.46341 14.6334 7.5C14.6334 9.53727 14.6248 9.79227 14.5895 10.592C14.5542 11.3898 14.4299 11.9352 14.2489 12.4125C14.0654 12.913 13.7775 13.3665 13.4055 13.7414C13.0397 14.1232 12.5974 14.4177 12.1098 14.6059C11.6442 14.7914 11.1121 14.9182 10.3338 14.955C9.55295 14.9918 9.30418 15 7.3167 15C5.32922 15 5.08045 14.9911 4.30022 14.955C3.52199 14.9189 2.98987 14.7914 2.52426 14.6059C2.03599 14.4177 1.59359 14.1227 1.22788 13.7414C0.855641 13.3668 0.567586 12.9136 0.383794 12.4132C0.203537 11.9359 0.0798185 11.3905 0.0439002 10.5927C0.00798184 9.79159 0 9.53659 0 7.5C0 5.46273 0.008647 5.20773 0.0439002 4.40864C0.0791534 3.60955 0.203537 3.06409 0.383794 2.58682C0.567858 2.08642 0.856133 1.63317 1.22854 1.25864C1.59374 0.87716 2.03569 0.581893 2.5236 0.393409C2.9892 0.208636 3.52133 0.0818182 4.29956 0.045H4.30022ZM10.2733 1.395C9.50173 1.35886 9.27026 1.35136 7.3167 1.35136C5.36314 1.35136 5.13167 1.35886 4.36009 1.395C3.64638 1.42841 3.25926 1.55045 3.00118 1.65341C2.65995 1.78977 2.41584 1.95136 2.15976 2.21386C1.91701 2.45594 1.73019 2.75065 1.613 3.07636C1.51256 3.34091 1.3935 3.73773 1.36091 4.46932C1.32565 5.26023 1.31834 5.4975 1.31834 7.5C1.31834 9.5025 1.32565 9.73977 1.36091 10.5307C1.3935 11.2623 1.51256 11.6591 1.613 11.9236C1.73007 12.2489 1.91698 12.5441 2.15976 12.7861C2.39589 13.035 2.6839 13.2266 3.00118 13.3466C3.25926 13.4495 3.64638 13.5716 4.36009 13.605C5.13167 13.6411 5.36248 13.6486 7.3167 13.6486C9.27092 13.6486 9.50173 13.6411 10.2733 13.605C10.987 13.5716 11.3741 13.4495 11.6322 13.3466C11.9734 13.2102 12.2176 13.0486 12.4736 12.7861C12.7164 12.5441 12.9033 12.2489 13.0204 11.9236C13.1208 11.6591 13.2399 11.2623 13.2725 10.5307C13.3077 9.73977 13.3151 9.5025 13.3151 7.5C13.3151 5.4975 13.3077 5.26023 13.2725 4.46932C13.2399 3.73773 13.1208 3.34091 13.0204 3.07636C12.8874 2.72659 12.7297 2.47636 12.4736 2.21386C12.2375 1.96505 11.95 1.77355 11.6322 1.65341C11.3741 1.55045 10.987 1.42841 10.2733 1.395V1.395ZM6.38216 9.81205C6.90408 10.0347 7.48524 10.0648 8.02637 9.89708C8.56751 9.72936 9.03506 9.37426 9.34915 8.89244C9.66325 8.41062 9.80442 7.83196 9.74854 7.2553C9.69266 6.67864 9.4432 6.13975 9.04278 5.73068C8.78751 5.46919 8.47887 5.26896 8.13905 5.14442C7.79924 5.01987 7.43671 4.97411 7.07757 5.01042C6.71843 5.04673 6.37162 5.16421 6.06209 5.35441C5.75256 5.5446 5.48802 5.80278 5.28752 6.11035C5.08701 6.41793 4.95553 6.76724 4.90253 7.13316C4.84954 7.49907 4.87635 7.87247 4.98104 8.22649C5.08572 8.5805 5.26568 8.90632 5.50796 9.18049C5.75023 9.45466 6.0488 9.67035 6.38216 9.81205ZM4.65741 4.77409C5.00663 4.41612 5.42122 4.13216 5.8775 3.93843C6.33379 3.7447 6.82282 3.64498 7.3167 3.64498C7.81058 3.64498 8.29962 3.7447 8.7559 3.93843C9.21218 4.13216 9.62677 4.41612 9.97599 4.77409C10.3252 5.13206 10.6022 5.55704 10.7912 6.02475C10.9802 6.49246 11.0775 6.99375 11.0775 7.5C11.0775 8.00625 10.9802 8.50754 10.7912 8.97525C10.6022 9.44296 10.3252 9.86794 9.97599 10.2259C9.2707 10.9489 8.31413 11.355 7.3167 11.355C6.31927 11.355 5.3627 10.9489 4.65741 10.2259C3.95213 9.50295 3.5559 8.52241 3.5559 7.5C3.5559 6.47759 3.95213 5.49705 4.65741 4.77409V4.77409ZM11.9116 4.21909C11.9981 4.13541 12.0674 4.03478 12.1153 3.92316C12.1632 3.81155 12.1888 3.69121 12.1906 3.56927C12.1923 3.44733 12.1701 3.32628 12.1254 3.21328C12.0807 3.10028 12.0143 2.99762 11.9302 2.91139C11.8461 2.82516 11.7459 2.75711 11.6357 2.71126C11.5254 2.66542 11.4073 2.64271 11.2884 2.64449C11.1694 2.64627 11.052 2.67249 10.9431 2.72161C10.8343 2.77073 10.7361 2.84175 10.6544 2.93045C10.4957 3.10297 10.4088 3.33213 10.4121 3.56927C10.4155 3.80641 10.5089 4.03287 10.6725 4.20057C10.8361 4.36828 11.057 4.46402 11.2884 4.46748C11.5197 4.47093 11.7433 4.38183 11.9116 4.21909V4.21909Z" fill="#272727"/>
</svg>
