<svg width="13" height="15" viewBox="0 0 13 15" fill="none" xmlns="http://www.w3.org/2000/svg">
<path fill-rule="evenodd" clip-rule="evenodd" d="M0 6.23832C0 2.78842 2.88291 0 6.37008 0C9.86709 0 12.75 2.78842 12.75 6.23832C12.75 7.97677 12.1178 9.59072 11.0771 10.9587C9.9291 12.4676 8.51412 13.7823 6.92141 14.8143C6.55688 15.0528 6.22791 15.0708 5.82784 14.8143C4.22605 13.7823 2.81107 12.4676 1.67287 10.9587C0.631488 9.59072 0 7.97677 0 6.23832ZM4.27067 6.43256C4.27067 7.58828 5.21374 8.49725 6.37008 8.49725C7.52718 8.49725 8.47933 7.58828 8.47933 6.43256C8.47933 5.28585 7.52718 4.33262 6.37008 4.33262C5.21374 4.33262 4.27067 5.28585 4.27067 6.43256Z" fill="#C9DA2B"/>
</svg>
