<svg width="15" height="14" viewBox="0 0 15 14" fill="none" xmlns="http://www.w3.org/2000/svg">
<path fill-rule="evenodd" clip-rule="evenodd" d="M11.2043 0C12.21 0 13.1775 0.3975 13.8892 1.11075C14.6017 1.8225 15 2.7825 15 3.7875V9.7125C15 11.805 13.2975 13.5 11.2043 13.5H3.795C1.70175 13.5 0 11.805 0 9.7125V3.7875C0 1.695 1.69425 0 3.795 0H11.2043ZM12.3975 4.905L12.4575 4.845C12.6368 4.6275 12.6367 4.3125 12.4492 4.095C12.345 3.98325 12.2017 3.915 12.0525 3.9C11.895 3.89175 11.745 3.945 11.6318 4.05L8.25 6.75C7.815 7.11075 7.19175 7.11075 6.75 6.75L3.375 4.05C3.14175 3.8775 2.81925 3.9 2.625 4.1025C2.4225 4.305 2.4 4.6275 2.57175 4.8525L2.67 4.95L6.0825 7.6125C6.5025 7.9425 7.01175 8.1225 7.545 8.1225C8.07675 8.1225 8.595 7.9425 9.01425 7.6125L12.3975 4.905Z" fill="#C9DA2B"/>
</svg>
