<svg width="20" height="20" viewBox="0 0 20 20" fill="none" xmlns="http://www.w3.org/2000/svg">
<path d="M7.15315 3.40838C8.41979 1.13613 9.05309 0 9.99999 0C10.9469 0 11.5802 1.13612 12.8468 3.40837L13.1745 3.99624C13.5345 4.64194 13.7144 4.9648 13.9951 5.17782C14.2757 5.39084 14.6251 5.46991 15.3241 5.62806L15.9605 5.77204C18.4201 6.32857 19.65 6.60683 19.9426 7.54774C20.2352 8.48861 19.3968 9.46911 17.7199 11.4299L17.2861 11.9372C16.8096 12.4944 16.5713 12.773 16.4641 13.1177C16.357 13.4624 16.393 13.8341 16.465 14.5776L16.5306 15.2544C16.7841 17.8706 16.9109 19.1787 16.1449 19.7602C15.3788 20.3417 14.2273 19.8115 11.9243 18.7512L11.3285 18.4768C10.6741 18.1755 10.3469 18.0248 9.99999 18.0248C9.65309 18.0248 9.32589 18.1755 8.67149 18.4768L8.07569 18.7512C5.77267 19.8115 4.62118 20.3417 3.85515 19.7602C3.08912 19.1787 3.21588 17.8706 3.4694 15.2544L3.53498 14.5776C3.60703 13.8341 3.64305 13.4624 3.53586 13.1177C3.42868 12.773 3.19043 12.4944 2.71392 11.9372L2.2801 11.4299C0.603251 9.46911 -0.235178 8.48861 0.0574219 7.54774C0.350022 6.60683 1.57986 6.32857 4.03954 5.77204L4.67589 5.62806C5.37485 5.46991 5.72432 5.39084 6.00493 5.17782C6.28554 4.9648 6.46552 4.64195 6.82546 3.99624L7.15315 3.40838Z" fill="#272727"/>
</svg>
