<svg width="20" height="20" viewBox="0 0 20 20" fill="none" xmlns="http://www.w3.org/2000/svg">
<path d="M10 0.5C10.2337 0.500004 10.499 0.6245 10.9062 1.15625C11.3137 1.68832 11.7688 2.50079 12.4102 3.65137L12.7373 4.23926C13.0754 4.84575 13.3087 5.28487 13.6924 5.57617C14.0792 5.86985 14.5578 5.96778 15.2139 6.11621L15.8506 6.25977C17.0971 6.54182 17.974 6.74124 18.5811 6.98047C19.1787 7.21601 19.3855 7.44103 19.4648 7.69629C19.5459 7.95699 19.5015 8.27586 19.1465 8.83984C18.7881 9.40919 18.1889 10.1117 17.3398 11.1045L16.9062 11.6123C16.4569 12.1378 16.1312 12.5033 15.9863 12.9688V12.9697C15.8425 13.433 15.8998 13.9244 15.9678 14.626L16.0332 15.3027C16.1615 16.6268 16.2511 17.5653 16.2207 18.248C16.1903 18.93 16.0443 19.2094 15.8428 19.3623C15.6494 19.509 15.3681 19.5679 14.749 19.3906C14.1233 19.2113 13.3011 18.8343 12.1338 18.2969L11.5381 18.0225C10.9257 17.7405 10.4822 17.5244 10 17.5244C9.51781 17.5244 9.07434 17.7405 8.46191 18.0225L7.86621 18.2969C6.69888 18.8343 5.87669 19.2113 5.25098 19.3906C4.63186 19.568 4.35054 19.509 4.15723 19.3623C3.95573 19.2093 3.80967 18.93 3.7793 18.248C3.74889 17.5653 3.83849 16.6268 3.9668 15.3027L4.03223 14.626C4.10021 13.9244 4.1576 13.4331 4.01367 12.9697C3.86888 12.5041 3.54326 12.1379 3.09375 11.6123L2.66016 11.1045C1.81111 10.1117 1.21193 9.4092 0.853516 8.83984C0.498486 8.27586 0.454083 7.95699 0.535156 7.69629C0.614543 7.44102 0.821272 7.21601 1.41895 6.98047C2.02599 6.74124 2.90283 6.54182 4.14941 6.25977L4.78613 6.11621C5.44211 5.96779 5.92076 5.86985 6.30762 5.57617C6.69123 5.28488 6.92356 4.8459 7.26172 4.23926L7.58984 3.65137C8.23121 2.50081 8.6863 1.68832 9.09375 1.15625C9.50097 0.6245 9.76634 0.5 10 0.5Z" stroke="#272727"/>
<mask id="mask0_155_17008" style="mask-type:alpha" maskUnits="userSpaceOnUse" x="0" y="0" width="10" height="20">
<rect width="10" height="20" fill="#D9D9D9"/>
</mask>
<g mask="url(#mask0_155_17008)">
<path d="M7.15315 3.40838C8.41979 1.13613 9.05309 0 9.99999 0C10.9469 0 11.5802 1.13612 12.8468 3.40837L13.1745 3.99624C13.5345 4.64194 13.7144 4.9648 13.9951 5.17782C14.2757 5.39084 14.6251 5.46991 15.3241 5.62806L15.9605 5.77204C18.4201 6.32857 19.65 6.60683 19.9426 7.54774C20.2352 8.48861 19.3968 9.46911 17.7199 11.4299L17.2861 11.9372C16.8096 12.4944 16.5713 12.773 16.4641 13.1177C16.357 13.4624 16.393 13.8341 16.465 14.5776L16.5306 15.2544C16.7841 17.8706 16.9109 19.1787 16.1449 19.7602C15.3788 20.3417 14.2273 19.8115 11.9243 18.7512L11.3285 18.4768C10.6741 18.1755 10.3469 18.0248 9.99999 18.0248C9.65309 18.0248 9.32589 18.1755 8.67149 18.4768L8.07569 18.7512C5.77267 19.8115 4.62118 20.3417 3.85515 19.7602C3.08912 19.1787 3.21588 17.8706 3.4694 15.2544L3.53498 14.5776C3.60703 13.8341 3.64305 13.4624 3.53586 13.1177C3.42868 12.773 3.19043 12.4944 2.71392 11.9372L2.2801 11.4299C0.603251 9.46911 -0.235178 8.48861 0.0574219 7.54774C0.350022 6.60683 1.57986 6.32857 4.03954 5.77204L4.67589 5.62806C5.37485 5.46991 5.72432 5.39084 6.00493 5.17782C6.28554 4.9648 6.46552 4.64195 6.82546 3.99624L7.15315 3.40838Z" fill="#272727"/>
</g>
</svg>
