<svg width="12" height="12" viewBox="0 0 12 12" fill="none" xmlns="http://www.w3.org/2000/svg">
<g clip-path="url(#clip0_179_17874)">
<path fill-rule="evenodd" clip-rule="evenodd" d="M4.79306 7.55245V4.18536C5.98839 4.74782 6.91416 5.29116 8.00907 5.87696C7.10601 6.37779 5.98839 6.93973 4.79306 7.55245ZM11.4546 2.51075C11.2484 2.2391 10.897 2.02763 10.5229 1.95763C9.42316 1.7488 2.56259 1.7482 1.46349 1.95763C1.16347 2.01387 0.896302 2.14982 0.6668 2.36104C-0.300218 3.25858 0.00279971 8.0718 0.235888 8.85147C0.333904 9.18895 0.460614 9.43234 0.62019 9.5921C0.825785 9.80332 1.10728 9.94875 1.43061 10.014C2.33607 10.2013 7.00082 10.306 10.5037 10.0421C10.8265 9.98585 11.1121 9.83574 11.3375 9.61554C12.2316 8.72158 12.1706 3.63806 11.4546 2.51075Z" fill="#272727"/>
</g>
<defs>
<clipPath id="clip0_179_17874">
<rect width="12" height="12" fill="white"/>
</clipPath>
</defs>
</svg>
